<svg xmlns="http://www.w3.org/2000/svg" viewBox="0 0 180 180"><defs><style>.cls-1{fill:#fdee5f;}.cls-2{fill:#13110c;}</style></defs><title>genius-logo2</title><g id="Layer_2" data-name="Layer 2"><g id="Layer_1-2" data-name="Layer 1"><path class="cls-1" d="M26.36,153.64a90,90,0,1,0,0-127.28,90,90,0,0,0,0,127.28"/><path class="cls-2" d="M52.46,75a1.21,1.21,0,0,0,.3.54,1.14,1.14,0,0,0,1.59,0,1,1,0,0,0,.22-.34h0A39.64,39.64,0,0,1,90.13,52.18h.17a1.07,1.07,0,0,0,.66-.31h0L100.82,42a1.11,1.11,0,0,0,0-1.58l-9.89-9.89h0a1.12,1.12,0,0,0-.85-.31l-1.17,0A37.17,37.17,0,0,0,52.46,75Z"/><path class="cls-2" d="M91.51,72.91h0A1.11,1.11,0,0,0,90,73l-.07.08h0l-.07.09h0a14.12,14.12,0,0,0-3.25,8.15v.09a4.61,4.61,0,0,0,0,.53v.13c0,.17,0,.33,0,.5v.17l0,.46c0,.07,0,.14,0,.21s0,.29,0,.43a2,2,0,0,0,0,.24,2.9,2.9,0,0,0,.06.41c0,.08,0,.17,0,.26s0,.25.07.38l.06.28.09.36.08.29c0,.12.07.24.1.35s.07.2.1.3.07.22.12.33a2.83,2.83,0,0,0,.11.31c0,.11.08.21.13.32l.13.31.14.3a3.18,3.18,0,0,0,.16.32,2.64,2.64,0,0,0,.15.29,3.24,3.24,0,0,0,.17.32c.06.09.11.19.16.28l.21.32.16.26.23.33.17.24.27.34.16.21c.1.13.22.26.33.39a.86.86,0,0,0,.13.14c.16.18.32.35.49.52h0c.07.07.14.13.2.2a14.17,14.17,0,0,0,19.84-.21l4.89-4.88,2.41-2.41a1.12,1.12,0,0,1,1.59,0l2.74,2.74a1.12,1.12,0,0,0,1.59,0,1.24,1.24,0,0,0,.17-.23,38.48,38.48,0,0,0,6-17h0a1.08,1.08,0,0,0-.32-.89l-.05,0h0L126.35,66l-.66-.67-3.26-3.25a1.11,1.11,0,0,0-1.58,0l-6.51,6.5-2.13,2.14-1.44,1.44h0a14.14,14.14,0,0,1-19.25.74"/><path class="cls-2" d="M152,93.22a1.11,1.11,0,0,0-.31-.89,1.12,1.12,0,0,0-1.59,0,1.08,1.08,0,0,0-.2.29h0l0,.07h0a64.84,64.84,0,0,1-118.7,0h0a1,1,0,0,0-.23-.35,1.11,1.11,0,0,0-1.9.93h0a61.52,61.52,0,0,0,123,0Z"/></g></g></svg>