<?xml version="1.0" standalone="no"?>
<!DOCTYPE svg PUBLIC "-//W3C//DTD SVG 20010904//EN"
 "http://www.w3.org/TR/2001/REC-SVG-20010904/DTD/svg10.dtd">
<svg version="1.0" xmlns="http://www.w3.org/2000/svg"
 width="916.000000pt" height="916.000000pt" viewBox="0 0 916.000000 916.000000"
 preserveAspectRatio="xMidYMid meet">
<metadata>
Created by potrace 1.11, written by Peter Selinger 2001-2013
</metadata>
<g transform="translate(0.000000,916.000000) scale(0.100000,-0.100000)"
fill="#000000" stroke="none">
<path d="M3340 8967 c-3 -2 -29 -8 -58 -11 -30 -4 -63 -11 -73 -17 -10 -5 -19
-7 -19 -5 0 18 -159 -57 -245 -115 -106 -71 -200 -158 -306 -284 -19 -22 -40
-46 -47 -54 -8 -8 -32 -39 -55 -70 -23 -30 -49 -63 -57 -72 -8 -10 -19 -24
-25 -31 -106 -142 -247 -290 -335 -354 -99 -71 -207 -122 -460 -215 -125 -46
-177 -67 -222 -90 -10 -5 -22 -9 -27 -9 -24 0 -228 -105 -303 -156 -90 -61
-195 -162 -246 -236 -60 -88 -139 -284 -147 -368 -2 -14 -4 -25 -5 -25 -3 0
-7 -35 -14 -105 -4 -30 -9 -73 -12 -95 -3 -22 -7 -85 -9 -140 -10 -257 -27
-480 -35 -480 -1 0 -3 -16 -5 -35 -5 -42 -7 -49 -30 -125 -11 -33 -18 -63 -17
-67 1 -5 -3 -8 -9 -8 -5 0 -7 -4 -4 -10 3 -5 1 -10 -4 -10 -6 0 -10 -4 -8 -8
2 -8 -111 -213 -123 -222 -4 -3 -15 -21 -26 -40 -10 -19 -22 -37 -25 -40 -9
-8 -129 -189 -129 -195 0 -3 -5 -11 -10 -18 -10 -11 -71 -104 -78 -117 -1 -3
-5 -15 -8 -27 -4 -13 -9 -23 -13 -23 -7 0 -29 -45 -76 -153 -17 -39 -44 -126
-51 -162 -2 -11 -8 -42 -13 -70 -14 -72 -6 -263 13 -323 5 -13 9 -34 11 -45
10 -77 182 -431 217 -445 4 -2 8 -10 8 -17 0 -8 6 -20 13 -27 21 -22 137 -198
137 -207 0 -5 4 -11 8 -13 7 -2 48 -67 99 -153 11 -20 55 -105 58 -115 1 -3 7
-18 14 -35 15 -35 37 -115 45 -165 3 -19 8 -46 11 -60 5 -31 14 -144 20 -270
13 -270 22 -405 25 -405 1 0 3 -11 5 -25 20 -202 91 -399 189 -525 43 -57 132
-145 145 -145 6 0 11 -4 11 -9 0 -5 33 -31 73 -57 122 -81 295 -161 492 -229
44 -15 84 -32 90 -36 5 -5 14 -9 21 -9 6 0 29 -8 50 -17 22 -9 41 -17 44 -18
5 -2 20 -7 87 -34 24 -9 43 -19 43 -23 0 -5 6 -8 13 -8 8 0 34 -11 58 -25 24
-14 51 -28 59 -32 8 -4 20 -12 26 -17 6 -6 22 -18 35 -26 24 -15 186 -175 225
-221 11 -14 54 -68 95 -120 41 -51 81 -103 90 -114 171 -208 247 -287 363
-374 68 -51 222 -131 281 -146 17 -4 39 -9 50 -12 103 -25 364 -23 405 2 9 5
11 4 6 -3 -5 -9 0 -9 19 -2 14 5 40 12 58 15 18 3 39 8 47 10 8 2 30 7 49 10
19 3 42 10 52 16 10 5 22 9 26 8 4 -1 10 0 13 1 3 1 12 3 20 5 41 10 60 15
125 35 39 11 79 22 90 25 11 2 30 6 43 9 142 35 200 48 247 54 67 8 289 6 312
-3 10 -4 36 -9 58 -11 22 -2 52 -9 67 -15 15 -6 31 -8 37 -5 5 4 12 2 15 -3 3
-5 23 -12 43 -17 21 -4 40 -8 43 -9 25 -5 148 -38 160 -43 32 -11 265 -69 310
-76 161 -27 333 -27 454 -1 89 19 262 104 346 170 40 32 232 227 265 269 17
21 35 43 40 50 6 6 64 79 130 161 122 153 282 325 303 325 7 0 12 4 12 8 0 13
241 147 275 152 3 1 19 7 37 14 18 7 42 17 53 21 11 4 25 9 30 11 29 8 329
125 380 149 33 15 69 31 80 36 11 5 43 22 70 39 28 17 58 33 68 36 9 4 17 10
17 15 0 5 5 9 11 9 29 0 191 152 240 226 40 60 63 98 64 104 0 3 6 14 12 25
12 22 62 167 69 200 10 50 17 82 20 105 9 60 16 127 17 158 1 17 4 32 7 32 3
0 5 39 6 88 1 111 13 345 19 397 3 22 7 60 10 85 2 25 4 45 5 45 1 0 4 14 6
30 6 46 26 119 35 131 5 6 10 19 12 30 5 26 48 116 64 132 7 7 13 18 13 23 0
5 11 26 24 47 12 20 23 41 24 46 0 5 4 12 9 15 9 6 218 318 239 356 6 11 24
43 41 70 39 67 103 202 103 220 0 8 4 16 9 19 7 5 11 19 22 74 1 4 6 18 11 32
25 67 32 292 11 381 -8 35 -16 69 -17 74 -6 28 -40 122 -49 133 -5 6 -7 12 -4
12 8 0 -75 160 -102 199 -12 16 -21 36 -21 45 0 9 -4 16 -10 16 -5 0 -18 16
-27 35 -10 19 -58 94 -108 167 -49 73 -92 137 -94 143 -2 5 -7 12 -10 15 -11
9 -41 64 -86 155 -62 127 -73 155 -70 174 1 9 -1 18 -5 21 -4 3 -10 23 -13 45
-3 22 -8 51 -10 65 -7 31 -16 155 -22 285 -14 272 -19 352 -31 437 -4 29 -7
63 -7 76 -1 12 -3 22 -6 22 -4 0 -7 13 -8 28 -2 36 -47 170 -80 242 -86 187
-244 335 -483 451 -133 65 -188 89 -203 89 -7 0 -17 4 -22 9 -6 4 -41 19 -80
32 -38 13 -72 26 -75 29 -3 3 -14 7 -25 8 -11 2 -24 8 -30 13 -5 5 -18 9 -30
9 -12 0 -25 4 -30 8 -18 16 -133 61 -139 55 -3 -4 -6 -1 -6 6 0 7 -4 10 -9 7
-5 -4 -11 -3 -13 1 -1 5 -27 19 -57 33 -30 14 -59 30 -65 35 -6 6 -31 23 -56
39 -48 31 -173 155 -236 233 -22 26 -45 54 -52 61 -7 8 -25 30 -40 50 -15 21
-29 39 -32 42 -3 3 -17 21 -31 40 -15 19 -35 45 -45 56 -11 12 -30 36 -44 54
-80 105 -280 300 -307 300 -7 0 -13 4 -13 9 0 18 -206 125 -265 137 -11 2 -47
10 -80 18 -59 14 -297 16 -355 3 -14 -3 -41 -8 -60 -11 -55 -9 -139 -28 -222
-51 -10 -3 -26 -7 -35 -9 -10 -3 -40 -11 -68 -19 -199 -57 -344 -91 -434 -104
-88 -12 -258 -6 -351 11 -19 4 -44 9 -55 11 -11 2 -20 4 -20 5 0 1 -11 3 -24
6 -13 2 -49 11 -80 20 -31 8 -74 20 -96 26 -22 5 -51 14 -65 19 -14 5 -36 11
-50 14 -14 2 -65 15 -115 29 -49 13 -106 27 -125 30 -45 7 -83 15 -117 22 -38
8 -277 17 -283 11z"/>
</g>
</svg>
